<?xml version="1.0" encoding="UTF-8" standalone="no"?>
<svg width="267px" height="51px" viewBox="0 0 267 51" version="1.1" xmlns="http://www.w3.org/2000/svg" xmlns:xlink="http://www.w3.org/1999/xlink" xmlns:sketch="http://www.bohemiancoding.com/sketch/ns">
    <!-- Generator: Sketch 3.3 (11970) - http://www.bohemiancoding.com/sketch -->
    <title>Beauchamp_Logo_footer</title>
    <desc>Created with Sketch.</desc>
    <defs></defs>
    <g id="Page-1" stroke="none" stroke-width="1" fill="none" fill-rule="evenodd" sketch:type="MSPage">
        <g id="Beauchamp_Logo_footer" sketch:type="MSLayerGroup" fill="#747074">
            <g id="Group" sketch:type="MSShapeGroup">
                <rect id="Rectangle-path" x="0.4" y="0.3" width="44.8" height="13.4"></rect>
                <rect id="Rectangle-path" x="0.4" y="18.4" width="44.8" height="13.4"></rect>
                <rect id="Rectangle-path" x="0.4" y="36.5" width="44.8" height="13.4"></rect>
                <path d="M73.3,16 C74.3,16 75.1,15.8 75.7,15.3 C76.2,14.8 76.5,14.1 76.5,13.2 C76.5,12.3 76.2,11.6 75.7,11.1 C75.2,10.6 74.4,10.4 73.3,10.4 L65.1,10.4 L65.1,16 L73.3,16 L73.3,16 Z M72.5,8.1 C73.7,8.1 74.6,7.9 75.1,7.5 C75.6,7.1 75.8,6.6 75.8,5.8 C75.8,5 75.6,4.5 75.1,4.1 C74.6,3.7 73.8,3.5 72.5,3.5 L65,3.5 L65,8 L72.5,8 L72.5,8.1 Z M62.3,1.2 L72.7,1.2 C73.7,1.2 74.6,1.3 75.4,1.5 C76.1,1.7 76.7,2 77.2,2.4 C77.7,2.8 78,3.3 78.2,3.8 C78.4,4.3 78.5,4.9 78.5,5.5 C78.5,6.3 78.3,7.1 78,7.7 C77.6,8.3 77,8.7 76.1,9 L76.1,9.1 C77,9.3 77.7,9.8 78.3,10.5 C78.8,11.2 79,12.2 79,13.2 C79,14.8 78.5,16 77.5,16.9 C76.5,17.8 74.9,18.2 72.6,18.2 L62.3,18.2 L62.3,1.2 L62.3,1.2 Z" id="Shape"></path>
                <path d="M86,1.2 L100.6,1.2 L100.6,3.4 L88.7,3.4 L88.7,8.5 L97.1,8.5 L97.1,10.7 L88.7,10.7 L88.7,16.2 L101.3,16.2 L101.3,18.4 L86,18.4 L86,1.2 Z" id="Shape"></path>
                <path d="M62.5,32.7 L77,32.7 L77,34.8 L65.2,34.8 L65.2,40 L73.6,40 L73.6,42.1 L65.2,42.1 L65.2,47.7 L77.8,47.7 L77.8,49.8 L62.5,49.8 L62.5,32.7 Z" id="Shape"></path>
                <path d="M167.5,32.7 L182,32.7 L182,34.8 L170.2,34.8 L170.2,40 L178.5,40 L178.5,42.1 L170.2,42.1 L170.2,47.7 L182.8,47.7 L182.8,49.8 L167.5,49.8 L167.5,32.7 Z" id="Shape"></path>
                <path d="M117.9,11.7 L114.2,4 L110.8,11.7 L117.9,11.7 L117.9,11.7 Z M105.2,18.4 L112.9,1.3 L115.7,1.3 L124,18.4 L121.2,18.4 L119,13.8 L109.8,13.8 L107.9,18.4 L105.2,18.4 L105.2,18.4 Z" id="Shape"></path>
                <path d="M212,11.7 L208.3,4 L204.9,11.7 L212,11.7 L212,11.7 Z M199.3,18.4 L207,1.2 L209.8,1.2 L218.1,18.3 L215.3,18.3 L213.1,13.7 L203.9,13.7 L202,18.3 L199.3,18.3 L199.3,18.4 Z" id="Shape"></path>
                <path d="M136,43.1 L132.3,35.4 L128.9,43.1 L136,43.1 L136,43.1 Z M123.3,49.8 L131,32.7 L133.8,32.7 L142.1,49.8 L139.3,49.8 L137.1,45.2 L127.9,45.2 L126,49.8 L123.3,49.8 L123.3,49.8 Z" id="Shape"></path>
                <path d="M129,1.2 L131.7,1.2 L131.7,12.8 C131.7,14 132.2,14.9 133.1,15.4 C134,15.9 135.4,16.2 137.2,16.2 C139,16.2 140.4,15.9 141.3,15.4 C142.2,14.9 142.7,14 142.7,12.8 L142.7,1.2 L145.4,1.2 L145.4,12.1 C145.4,13.4 145.2,14.5 144.8,15.3 C144.4,16.1 143.9,16.8 143.2,17.3 C142.5,17.8 141.6,18.1 140.6,18.3 C139.6,18.5 138.4,18.5 137.1,18.5 C135.8,18.5 134.7,18.4 133.6,18.3 C132.6,18.1 131.7,17.8 131,17.3 C130.3,16.8 129.8,16.2 129.4,15.3 C129,14.5 128.8,13.4 128.8,12.1 L128.8,1.2 L129,1.2 Z" id="Shape"></path>
                <path d="M169.5,15 C169.3,15.2 168.5,16.1 168.5,16.1 C168.2,16.4 167.7,16.9 167.1,17.2 C166.5,17.5 165.7,17.8 164.7,18.1 C163.7,18.4 162.6,18.5 161.2,18.5 C159.7,18.5 158.3,18.3 157,17.8 C155.7,17.4 154.7,16.7 153.8,15.9 C152.9,15.1 152.2,14.1 151.7,13 C151.2,11.9 150.9,10.7 150.9,9.3 C150.9,8.2 151.1,7.1 151.6,6.1 C152.1,5.1 152.7,4.2 153.6,3.4 C154.5,2.6 155.5,2 156.8,1.6 C158,1.1 159.5,0.9 161,0.9 C162.1,0.9 163.1,1 163.9,1.2 C164.7,1.4 165.5,1.6 166.1,1.8 C166.7,2 167.2,2.2 167.6,2.4 C167.6,2.4 168.5,2.8 169,3.2 L167.8,5.3 C166.5,4.6 165.2,4.1 165.2,4.1 C164.6,3.9 164,3.6 163.2,3.4 C162.4,3.2 161.6,3.1 160.8,3.1 C159.9,3.1 159.1,3.2 158.2,3.5 C157.3,3.7 156.5,4.1 155.9,4.7 C155.2,5.2 154.7,5.9 154.2,6.7 C153.8,7.5 153.5,8.5 153.5,9.6 C153.5,10.6 153.7,11.5 154.2,12.3 C154.6,13.1 155.2,13.8 156,14.4 C156.7,15 157.6,15.4 158.5,15.8 C159.4,16.1 160.4,16.3 161.4,16.3 C162.2,16.3 162.9,16.2 163.6,16 C164.3,15.8 165,15.6 165.5,15.3 C166,15 166.5,14.6 166.8,14.3 L167.9,13.2 L169.5,15 L169.5,15 Z" id="Shape"></path>
                <path d="M193.7,18.4 L191,18.4 L191,10.7 L179.4,10.7 L179.4,18.4 L176.7,18.4 L176.7,1.2 L179.4,1.2 L179.4,8.5 L191,8.5 L191,1.2 L193.7,1.2 L193.7,18.4 Z" id="Shape"></path>
                <path d="M260.7,8.7 C262,8.7 263,8.5 263.5,7.9 C264,7.4 264.3,6.7 264.3,5.8 C264.3,5 264.1,4.3 263.6,3.9 C263.1,3.5 262.2,3.3 260.7,3.3 L253.3,3.3 L253.3,8.6 L260.7,8.6 L260.7,8.7 Z M250.6,1.2 L260.8,1.2 C263,1.2 264.5,1.6 265.4,2.4 C266.3,3.2 266.8,4.3 266.8,5.8 C266.8,7.4 266.3,8.7 265.4,9.6 C264.5,10.5 263,10.9 260.9,10.9 L253.4,10.9 L253.4,18.3 L250.7,18.3 L250.7,1.2 L250.6,1.2 Z" id="Shape"></path>
                <path d="M110.5,34.8 L103.5,34.8 L103.5,32.7 L120.3,32.7 L120.3,34.8 L113.3,34.8 L113.3,49.8 L110.5,49.8 L110.5,34.8 Z" id="Shape"></path>
                <path d="M152.2,34.8 L145.2,34.8 L145.2,32.7 L161.9,32.7 L161.9,34.8 L154.9,34.8 L154.9,49.8 L152.2,49.8 L152.2,34.8 Z" id="Shape"></path>
                <path d="M233.1,18.1 L226,4.3 L226,18.4 L223.6,18.4 L223.6,1.2 L227.1,1.2 L233.1,12.8 L239.2,1.2 L242.7,1.2 L242.7,18.4 L240.3,18.4 L240.3,4.3 L233.1,18.1 Z" id="Shape"></path>
                <path d="M86.8,47 C87.4,47.3 88,47.4 88.8,47.6 C89.6,47.8 90.4,47.9 91.2,47.9 C93.3,47.9 94.8,47.6 95.7,47 C96.6,46.4 97.1,45.6 97.1,44.7 C97.1,44.2 97,43.9 96.8,43.6 C96.6,43.3 96.3,43.1 95.9,42.9 C95.5,42.7 95,42.6 94.5,42.6 C94,42.5 93.4,42.5 92.8,42.5 L89.6,42.5 C88.5,42.5 87.5,42.3 86.5,42.1 C85.6,41.8 84.8,41.4 84.2,40.7 C83.6,40.1 83.3,39.1 83.3,37.9 C83.3,37.1 83.5,36.4 84,35.8 C84.4,35.2 85,34.6 85.8,34.2 C86.5,33.7 87.4,33.4 88.5,33.1 C89.5,32.8 90.6,32.7 91.8,32.7 C92.7,32.7 93.5,32.8 94.2,32.9 C94.9,33 95.5,33.2 96,33.3 C96.5,33.5 96.9,33.6 97.2,33.7 C97.2,33.7 98.2,34.1 98.8,34.5 L97.8,36.6 C97.1,36.2 95.6,35.5 95.6,35.5 C95.1,35.3 94.6,35.1 93.9,35 C93.2,34.9 92.5,34.8 91.7,34.8 C89.9,34.8 88.5,35.1 87.5,35.6 C86.5,36.2 86,36.9 86,37.8 C86,38.2 86.1,38.5 86.3,38.8 C86.5,39 86.8,39.2 87.2,39.4 C87.6,39.5 88.1,39.6 88.6,39.7 C89.1,39.7 89.7,39.8 90.3,39.8 L93.5,39.8 C94.6,39.8 95.6,40 96.6,40.3 C97.5,40.6 98.3,41.1 98.9,41.8 C99.5,42.5 99.8,43.5 99.8,44.8 C99.8,45.5 99.6,46.2 99.3,46.8 C98.9,47.4 98.4,48 97.7,48.5 C97,49 96.1,49.4 95,49.7 C93.9,50 92.7,50.1 91.3,50.1 C90.1,50.1 89.1,50 88.3,49.8 C87.4,49.6 86.7,49.4 86.1,49.1 C85.5,48.9 85,48.6 84.6,48.4 L83.2,47.6 L84.3,45.6 C85.2,46.2 86.8,47 86.8,47" id="Shape"></path>
                <path d="M191.8,47 C192.4,47.3 193,47.4 193.8,47.6 C194.6,47.8 195.4,47.9 196.2,47.9 C198.3,47.9 199.8,47.6 200.7,47 C201.6,46.4 202.1,45.6 202.1,44.7 C202.1,44.2 202,43.9 201.8,43.6 C201.6,43.3 201.3,43.1 200.9,42.9 C200.5,42.7 200,42.6 199.5,42.6 C199,42.5 198.4,42.5 197.8,42.5 L194.6,42.5 C193.5,42.5 192.5,42.3 191.5,42.1 C190.6,41.8 189.8,41.4 189.2,40.7 C188.6,40.1 188.3,39.1 188.3,37.9 C188.3,37.1 188.5,36.4 189,35.8 C189.4,35.2 190,34.6 190.8,34.2 C191.5,33.7 192.4,33.4 193.5,33.1 C194.5,32.8 195.6,32.7 196.8,32.7 C197.7,32.7 198.5,32.8 199.2,32.9 C199.9,33 200.5,33.2 201,33.3 C201.5,33.5 201.9,33.6 202.2,33.7 C202.2,33.7 203.2,34.1 203.8,34.5 L202.8,36.6 C202.1,36.2 200.6,35.5 200.6,35.5 C200.1,35.3 199.5,35.1 198.9,35 C198.2,34.9 197.5,34.8 196.7,34.8 C194.9,34.8 193.5,35.1 192.5,35.6 C191.5,36.2 191,36.9 191,37.8 C191,38.2 191.1,38.5 191.3,38.8 C191.5,39 191.8,39.2 192.2,39.4 C192.6,39.5 193.1,39.6 193.6,39.7 C194.1,39.7 194.7,39.8 195.3,39.8 L198.5,39.8 C199.6,39.8 200.6,40 201.6,40.3 C202.5,40.6 203.3,41.1 203.9,41.8 C204.5,42.5 204.8,43.5 204.8,44.8 C204.8,45.5 204.6,46.2 204.3,46.8 C203.9,47.4 203.4,48 202.7,48.5 C202,49 201.1,49.4 200,49.7 C198.9,50 197.7,50.1 196.3,50.1 C195.1,50.1 194.1,50 193.3,49.8 C192.4,49.6 191.7,49.4 191.1,49.1 C190.5,48.9 190,48.6 189.6,48.4 C189.6,48.4 188.9,48 188.2,47.6 L189.3,45.6 C190.2,46.2 191.8,47 191.8,47" id="Shape"></path>
            </g>
        </g>
    </g>
</svg>