<?xml version="1.0" encoding="UTF-8" standalone="no"?>
<svg width="29px" height="54px" viewBox="0 0 29 54" version="1.1" xmlns="http://www.w3.org/2000/svg" xmlns:xlink="http://www.w3.org/1999/xlink" xmlns:sketch="http://www.bohemiancoding.com/sketch/ns">
    <!-- Generator: Sketch 3.3 (11970) - http://www.bohemiancoding.com/sketch -->
    <title>Rectangle 1 + Rectangle 1 Copy 3</title>
    <desc>Created with Sketch.</desc>
    <defs></defs>
    <g id="Page-1" stroke="none" stroke-width="1" fill="none" fill-rule="evenodd" sketch:type="MSPage">
        <g id="Rectangle-1-+-Rectangle-1-Copy-3" sketch:type="MSLayerGroup" transform="translate(27.085786, 26.500000) rotate(-45.000000) translate(-27.085786, -26.500000) translate(7.585786, 7.000000)" fill="#009B77">
            <rect id="Rectangle-1" sketch:type="MSShapeGroup" x="0.292893219" y="0.707106781" width="38" height="2" rx="1"></rect>
            <path d="M-17.5857864,19.5857864 C-17.5857864,19.0335017 -17.1329349,18.5857864 -16.5908327,18.5857864 L10.7782096,18.5857864 C11.3340823,18.5857864 12.2256385,18.5857864 12.780717,18.5857864 L19.4149298,18.5857864 C19.966819,18.5857864 20.4142136,19.0296513 20.4142136,19.5857864 L20.4142136,19.5857864 C20.4142136,20.1380712 19.9663343,20.5857864 19.4219586,20.5857864 L10.1464073,20.5857864 C9.59780842,20.5857864 8.70192694,20.5857864 8.15328229,20.5857864 L-16.5761631,20.5857864 C-17.1337627,20.5857864 -17.5857864,20.1419216 -17.5857864,19.5857864 L-17.5857864,19.5857864 Z" id="Rectangle-1-Copy" sketch:type="MSShapeGroup" transform="translate(1.414214, 19.585786) rotate(-90.000000) translate(-1.414214, -19.585786) "></path>
        </g>
    </g>
</svg>