<?xml version="1.0" encoding="UTF-8" standalone="no"?>
<svg width="18px" height="34px" viewBox="0 0 18 34" version="1.1" xmlns="http://www.w3.org/2000/svg" xmlns:xlink="http://www.w3.org/1999/xlink" xmlns:sketch="http://www.bohemiancoding.com/sketch/ns">
    <!-- Generator: Sketch 3.3 (11970) - http://www.bohemiancoding.com/sketch -->
    <title>Rectangle 1 + Rectangle 1 Copy 2</title>
    <desc>Created with Sketch.</desc>
    <defs></defs>
    <g id="Page-1" stroke="none" stroke-width="1" fill="none" fill-rule="evenodd" sketch:type="MSPage">
        <g id="Rectangle-1-+-Rectangle-1-Copy-2" sketch:type="MSLayerGroup" transform="translate(16.832738, 17.353553) rotate(-45.000000) translate(-16.832738, -17.353553) translate(4.832738, 4.853553)" fill="#FFFFFF">
            <rect id="Rectangle-1" sketch:type="MSShapeGroup" x="0.183164059" y="0.442197154" width="23.7637261" height="1.25072243" rx="1"></rect>
            <path d="M0.884394308,12.8735524 C-5.67777745,12.8735524 -10.9974687,12.8586473 -10.9974687,12.8408047 L-10.9974687,11.939987 C-10.9974687,11.9216911 -10.9974687,11.8923466 -10.9974687,11.8740769 L-10.9974687,11.6557201 C-10.9974687,11.6375554 -5.7235277,11.6228299 0.884394308,11.6228299 L0.884394308,11.6228299 C7.44656607,11.6228299 12.7662574,11.6375713 12.7662574,11.6554888 L12.7662574,11.9607819 L12.7662574,12.0263831 L12.7662574,12.8403219 C12.7662574,12.8586746 7.49231632,12.8735524 0.884394308,12.8735524 L0.884394308,12.8735524 L0.884394308,12.8735524 Z" id="Rectangle-1-Copy" sketch:type="MSShapeGroup" transform="translate(0.884394, 12.248191) rotate(-90.000000) translate(-0.884394, -12.248191) "></path>
        </g>
    </g>
</svg>