<?xml version="1.0" encoding="UTF-8" standalone="no"?>
<svg width="403px" height="402px" viewBox="0 0 403 402" version="1.1" xmlns="http://www.w3.org/2000/svg" xmlns:xlink="http://www.w3.org/1999/xlink" xmlns:sketch="http://www.bohemiancoding.com/sketch/ns">
    <!-- Generator: Sketch 3.3 (11970) - http://www.bohemiancoding.com/sketch -->
    <title>G</title>
    <desc>Created with Sketch.</desc>
    <defs></defs>
    <g id="Page-1" stroke="none" stroke-width="1" fill="none" fill-rule="evenodd" sketch:type="MSPage">
        <g id="G" sketch:type="MSLayerGroup" fill="#E5F5F3">
            <g id="Group" sketch:type="MSShapeGroup">
                <g id="Shape">
                    <path d="M201.4,401.4 C90.7,401.4 0.7,311.4 0.7,200.7 C0.7,90 90.7,0 201.4,0 C312.1,0 402.1,90 402.1,200.7 C402.1,311.4 312.1,401.4 201.4,401.4 L201.4,401.4 Z M201.4,26.4 C105.3,26.4 27.2,104.6 27.2,200.6 C27.2,296.7 105.4,374.8 201.4,374.8 C297.4,374.8 375.6,296.6 375.6,200.6 C375.7,104.6 297.5,26.4 201.4,26.4 L201.4,26.4 Z"></path>
                    <path d="M199,198.9 L199,224.9 L254.9,224.9 L254.9,261 C235.5,274.3 217.4,280.6 198.3,280.6 C156.1,280.6 124.2,246.4 124.2,201 C124.2,153.4 156.8,118.9 201.7,118.9 C221,118.9 236.7,125.4 244.9,132.5 C242.4,135.6 241.1,139.6 241.1,144.1 C241.1,155.3 249.7,163.7 261,163.7 C272.9,163.7 281.5,154.3 281.5,141.3 C281.5,117.6 249,91.3 202.3,91.3 C140.7,91.3 94.2,138.4 94.2,200.9 C94.2,252.5 129.8,307.4 195.8,307.4 C219.2,307.4 239.8,300.7 258.7,287.1 L283.9,307.3 L283.9,198.9 L199,198.9 L199,198.9 Z"></path>
                </g>
            </g>
        </g>
    </g>
</svg>