<?xml version="1.0" encoding="UTF-8" standalone="no"?>
<svg width="32px" height="48px" viewBox="0 0 32 48" version="1.1" xmlns="http://www.w3.org/2000/svg" xmlns:xlink="http://www.w3.org/1999/xlink" xmlns:sketch="http://www.bohemiancoding.com/sketch/ns">
    <!-- Generator: Sketch 3.4.2 (15857) - http://www.bohemiancoding.com/sketch -->
    <title>path3029</title>
    <desc>Created with Sketch.</desc>
    <defs></defs>
    <g id="Page-1" stroke="none" stroke-width="1" fill="none" fill-rule="evenodd" sketch:type="MSPage">
        <g id="Map_marker_font_awesome" sketch:type="MSLayerGroup" transform="translate(1.000000, 0.000000)" stroke="#FFFFFF" fill="#009B77">
            <g id="g3027" transform="translate(31.565459, 30.894800) scale(1, -1) translate(-31.565459, -30.894800) translate(0.065459, 0.894800)" sketch:type="MSShapeGroup">
                <path d="M22.6551724,44.5977011 C22.6551724,46.6854646 21.9176994,48.4679418 20.4427532,49.9451329 C18.9678071,51.422324 17.1880388,52.1609195 15.1034483,52.1609195 C13.0188578,52.1609195 11.2390894,51.422324 9.76414332,49.9451329 C8.2891972,48.4679418 7.55172414,46.6854646 7.55172414,44.5977011 C7.55172414,42.5099377 8.2891972,40.7274605 9.76414332,39.2502694 C11.2390894,37.7730783 13.0188578,37.0344828 15.1034483,37.0344828 C17.1880388,37.0344828 18.9678071,37.7730783 20.4427532,39.2502694 C21.9176994,40.7274605 22.6551724,42.5099377 22.6551724,44.5977011 L22.6551724,44.5977011 Z M30.2068966,44.5977011 C30.2068966,42.4508501 29.8824084,40.6880687 29.2334321,39.309357 L18.4958244,16.4424389 C18.1811692,15.7924749 17.7141029,15.2803819 17.0946255,14.9061602 C16.4751482,14.5319385 15.8114224,14.3448276 15.1034483,14.3448276 C14.3954741,14.3448276 13.7317484,14.5319385 13.112271,14.9061602 C12.4927936,15.2803819 12.0355603,15.7924749 11.7405711,16.4424389 L0.97346444,39.309357 C0.324488147,40.6880687 2.74363865e-14,42.4508501 2.74363865e-14,44.5977011 C2.74363865e-14,48.773228 1.47494612,52.3381825 4.42483836,55.2925647 C7.3747306,58.2469468 10.9342672,59.7241379 15.1034483,59.7241379 C19.2726293,59.7241379 22.8321659,58.2469468 25.7820582,55.2925647 C28.7319504,52.3381825 30.2068966,48.773228 30.2068966,44.5977011 L30.2068966,44.5977011 Z" id="path3029"></path>
            </g>
        </g>
    </g>
</svg>