<?xml version="1.0" standalone="no"?>
<!DOCTYPE svg PUBLIC "-//W3C//DTD SVG 20010904//EN"
 "http://www.w3.org/TR/2001/REC-SVG-20010904/DTD/svg10.dtd">
<svg version="1.0" xmlns="http://www.w3.org/2000/svg"
 width="512.000000pt" height="512.000000pt" viewBox="0 0 512.000000 512.000000"
 preserveAspectRatio="xMidYMid meet">
<metadata>
Created by potrace 1.11, written by Peter Selinger 2001-2013
</metadata>
<g transform="translate(0.000000,512.000000) scale(0.100000,-0.100000)"
fill="#000000" stroke="none">
<path d="M2527 5004 c-1 -1 -56 -5 -122 -8 -66 -4 -127 -8 -135 -11 -8 -2 -37
-6 -65 -10 -229 -28 -510 -117 -746 -235 -506 -255 -922 -698 -1147 -1223 -65
-151 -134 -378 -156 -512 -31 -185 -40 -285 -39 -445 0 -105 8 -257 18 -320
23 -155 43 -245 85 -386 174 -584 561 -1078 1092 -1398 70 -42 129 -76 132
-76 2 0 42 -18 88 -39 194 -92 473 -178 636 -197 31 -3 59 -8 62 -9 28 -17
410 -25 556 -12 74 6 263 37 324 52 14 3 34 8 45 10 112 24 347 111 486 180
472 235 853 610 1093 1077 243 474 324 997 235 1526 -101 606 -442 1165 -934
1537 -33 25 -64 48 -70 53 -41 32 -174 112 -258 157 -255 135 -526 224 -792
260 -22 3 -49 7 -60 10 -11 2 -74 7 -140 10 -66 4 -135 8 -153 9 -18 1 -33 1
-35 0z m313 -407 c14 -3 39 -8 55 -11 17 -4 46 -9 65 -12 64 -10 224 -55 320
-91 184 -68 373 -175 542 -305 97 -76 272 -245 323 -313 17 -22 36 -46 43 -54
20 -21 124 -178 163 -246 135 -235 233 -547 257 -820 66 -759 -277 -1473 -915
-1902 -145 -97 -443 -236 -555 -259 -5 -1 -9 -2 -10 -4 -2 -1 -10 -3 -18 -5
-8 -2 -46 -11 -85 -20 -161 -38 -262 -49 -460 -50 -155 0 -251 7 -345 25 -30
6 -68 13 -85 16 -69 11 -226 58 -319 96 -478 190 -848 524 -1085 980 -150 287
-225 600 -225 933 0 253 36 462 120 698 179 506 569 932 1067 1167 179 85 376
142 612 179 59 9 486 7 535 -2z"/>
<path d="M2497 3904 c-1 -1 -36 -5 -77 -8 -497 -46 -932 -385 -1098 -857 -57
-163 -76 -275 -77 -464 0 -222 9 -289 66 -465 36 -112 100 -243 166 -343 59
-89 227 -260 310 -316 135 -90 309 -161 468 -192 78 -15 347 -19 437 -6 56 8
197 41 228 54 8 3 20 7 27 9 27 5 205 94 247 123 24 17 47 31 51 31 3 0 78
-57 166 -127 88 -71 163 -129 167 -131 4 -1 7 313 7 698 l0 700 -30 1 c-159 3
-1048 0 -1052 -5 -5 -4 -7 -238 -4 -354 l1 -23 318 1 c174 1 324 1 333 1 15
-1 16 -22 16 -185 0 -101 -3 -188 -6 -193 -22 -30 -224 -137 -316 -167 -146
-47 -344 -64 -469 -41 -236 43 -453 195 -573 400 -38 65 -88 186 -102 250 -6
28 -14 61 -17 75 -11 45 -13 293 -3 355 21 135 88 307 162 414 40 59 151 170
207 208 85 58 238 124 318 138 105 18 239 23 318 10 27 -5 54 -9 59 -9 66 -7
285 -96 285 -116 0 -4 -6 -26 -14 -48 -18 -51 -14 -143 9 -200 23 -57 101
-125 162 -143 156 -44 306 35 352 185 85 278 -187 586 -614 695 -87 22 -110
26 -200 37 -52 6 -223 12 -228 8z"/>
</g>
</svg>
